<?xml version="1.0" encoding="UTF-8" standalone="no"?>
<!-- Created with Inkscape (http://www.inkscape.org/) -->

<svg
   width="32"
   height="32"
   viewBox="0 0 8.4666665 8.4666669"
   version="1.1"
   id="svg1485"
   inkscape:version="1.1 (c68e22c387, 2021-05-23)"
   sodipodi:docname="WB_P2PSeg_icon.svg"
   xmlns:inkscape="http://www.inkscape.org/namespaces/inkscape"
   xmlns:sodipodi="http://sodipodi.sourceforge.net/DTD/sodipodi-0.dtd"
   xmlns="http://www.w3.org/2000/svg"
   xmlns:svg="http://www.w3.org/2000/svg">
  <sodipodi:namedview
     id="namedview1487"
     pagecolor="#ffffff"
     bordercolor="#666666"
     borderopacity="1.0"
     inkscape:pageshadow="2"
     inkscape:pageopacity="0.0"
     inkscape:pagecheckerboard="0"
     inkscape:document-units="mm"
     showgrid="false"
     units="px"
     inkscape:zoom="12.6875"
     inkscape:cx="24.078818"
     inkscape:cy="19.901478"
     inkscape:window-width="1920"
     inkscape:window-height="1001"
     inkscape:window-x="-9"
     inkscape:window-y="-9"
     inkscape:window-maximized="1"
     inkscape:current-layer="layer1" />
  <defs
     id="defs1482">
    <inkscape:path-effect
       effect="spiro"
       id="path-effect12116"
       is_visible="true"
       lpeversion="1" />
    <inkscape:path-effect
       effect="bspline"
       id="path-effect11901"
       is_visible="true"
       lpeversion="1"
       weight="33.333333"
       steps="2"
       helper_size="0"
       apply_no_weight="true"
       apply_with_weight="true"
       only_selected="false" />
    <inkscape:path-effect
       effect="bspline"
       id="path-effect9330"
       is_visible="true"
       lpeversion="1"
       weight="33.333333"
       steps="2"
       helper_size="0"
       apply_no_weight="true"
       apply_with_weight="true"
       only_selected="false" />
  </defs>
  <g
     inkscape:label="Ebene 1"
     inkscape:groupmode="layer"
     id="layer1">
    <ellipse
       style="fill:#0000ff;stroke:#000000;stroke-width:0.264583"
       id="path9291"
       cx="1.2199507"
       cy="7.205008"
       rx="0.3857964"
       ry="0.34408867" />
    <ellipse
       style="fill:#0000ff;stroke:#000000;stroke-width:0.264583"
       id="path9293"
       cx="7.1215925"
       cy="1.1261083"
       rx="0.34408867"
       ry="0.33366174" />
    <text
       xml:space="preserve"
       style="font-style:normal;font-weight:normal;font-size:2.45703px;line-height:1.25;font-family:sans-serif;fill:#000000;fill-opacity:1;stroke:none;stroke-width:0.0614258"
       x="2.5599847"
       y="8.7359037"
       id="text10544"
       transform="scale(1.0578553,0.9453089)"><tspan
         sodipodi:role="line"
         id="tspan10542"
         style="stroke-width:0.0614258"
         x="2.5599847"
         y="8.7359037">A</tspan></text>
    <text
       xml:space="preserve"
       style="font-style:normal;font-weight:normal;font-size:2.35915px;line-height:1.25;font-family:sans-serif;fill:#000000;fill-opacity:1;stroke:none;stroke-width:0.058979"
       x="3.937674"
       y="2.1836627"
       id="text11784"
       transform="scale(1.0684966,0.93589437)"><tspan
         sodipodi:role="line"
         id="tspan11782"
         style="stroke-width:0.058979"
         x="3.937674"
         y="2.1836627">B</tspan></text>
    <path
       style="fill:none;stroke:#000000;stroke-width:0.264583px;stroke-linecap:butt;stroke-linejoin:miter;stroke-opacity:1"
       d="m 2.6067323,4.3584563 c 0,0 1.480624,-0.2502461 1.480624,-0.2502461 0,0 0.041708,1.3972085 0.041708,1.3972085"
       id="path11899"
       inkscape:path-effect="#path-effect11901"
       inkscape:original-d="M 2.6067323,4.3584563 4.0873563,4.1082102 4.129064,5.5054187" />
    <path
       style="fill:none;stroke:#000000;stroke-width:0.264583px;stroke-linecap:butt;stroke-linejoin:miter;stroke-opacity:1"
       d="M 1.3137931,7.1528735 C 1.3206727,7.0828943 1.3135398,7.011566 1.2929392,6.9443348 1.2637464,6.8490625 1.2086644,6.7641218 1.1678161,6.6732348 1.1227221,6.5729011 1.0951779,6.4657825 1.0635468,6.3604269 1.0139974,6.1953899 0.95358874,6.0315803 0.93842363,5.8599342 c -0.009794,-0.1108478 -4.296e-4,-0.2223831 0,-0.3336618 5.1664e-4,-0.1338256 -0.010949,-0.2731913 0.0417077,-0.3962231 0.0273042,-0.063796 0.0712653,-0.1202179 0.12570517,-0.1632496 0.05444,-0.043032 0.1192,-0.072691 0.1871027,-0.086997 0.041384,-0.00872 0.083807,-0.011823 0.1251232,-0.020854 0.064471,-0.014093 0.1248826,-0.042287 0.1876847,-0.062562 0.1605173,-0.051821 0.3345025,-0.050829 0.5004926,-0.020855 0.083295,0.015042 0.1657208,0.037254 0.2502463,0.041708 0.055544,0.00293 0.1112409,-0.00187 0.1668309,0 0.059496,0.002 0.1184675,0.011632 0.1778412,0.015936 0.059374,0.0043 0.1202643,0.00308 0.1766743,-0.015936 0.082711,-0.027885 0.1488706,-0.091434 0.2293924,-0.1251233 0.034572,-0.014464 0.071606,-0.023337 0.1042694,-0.041708 0.055999,-0.031496 0.093766,-0.087682 0.145977,-0.1251233 0.058299,-0.041807 0.1323264,-0.05864 0.1876848,-0.1042691 0.030366,-0.025029 0.053689,-0.057632 0.083416,-0.083416 0.034389,-0.029828 0.076143,-0.049551 0.1168075,-0.070013 0.040665,-0.020462 0.081588,-0.042625 0.1125849,-0.075964 0.013511,-0.014532 0.024866,-0.030917 0.037725,-0.046029 0.012859,-0.015112 0.02761,-0.029212 0.04569,-0.037386 0.020073,-0.00908 0.043185,-0.010376 0.062562,-0.020855 0.015528,-0.0084 0.027546,-0.022154 0.037093,-0.037002 0.00955,-0.014848 0.016924,-0.030966 0.025469,-0.046413 0.043529,-0.078695 0.1157882,-0.1374146 0.1910824,-0.1865931 0.075294,-0.049179 0.1556146,-0.091083 0.2259948,-0.1470687 0.058729,-0.046717 0.1095582,-0.1024738 0.1651121,-0.1529255 0.055554,-0.050452 0.1175611,-0.096488 0.1894034,-0.1181746 0.053798,-0.016239 0.110702,-0.018127 0.1668309,-0.020854 0.1669439,-0.00811 0.3351781,-0.02464 0.5004927,0 0.076883,0.011459 0.1523023,0.031736 0.2293924,0.041708 0.1588571,0.020549 0.321254,-0.00306 0.4796388,0.020854 0.038454,0.00581 0.076558,0.014405 0.1153444,0.01724 0.038787,0.00283 0.078983,-4.21e-4 0.114048,-0.01724 0.027069,-0.012983 0.049768,-0.033353 0.072337,-0.053151 0.022569,-0.019798 0.045912,-0.03961 0.07364,-0.051118 0.020316,-0.00843 0.042372,-0.012127 0.062562,-0.020854 0.031877,-0.013779 0.057203,-0.039244 0.07924,-0.066084 0.022036,-0.026841 0.041754,-0.055771 0.066737,-0.079893 0.025037,-0.024174 0.054707,-0.042889 0.083416,-0.062562 C 7.1805195,2.9025019 7.3902364,2.5722859 7.4485141,2.2148472 7.5067918,1.8574085 7.412826,1.4776794 7.1945811,1.1886675"
       id="path12114"
       inkscape:path-effect="#path-effect12116"
       inkscape:original-d="M 1.3137931,7.1528735 C 1.272151,7.0871442 1.3066398,7.0128378 1.2929392,6.9443348 1.2725535,6.8424062 1.1846743,6.7743842 1.1678161,6.6732348 1.1486178,6.5580447 1.1050742,6.4711666 1.0635468,6.3604269 1.0249631,6.257537 0.95446058,5.9721927 0.93842363,5.8599342 c -0.0150529,-0.1053709 0,-0.2278404 0,-0.3336618 0,-0.1303534 -0.0274428,-0.2809724 0.0417077,-0.3962231 C 1.0146632,5.0724961 1.2255302,4.8966551 1.2929392,4.879803 1.3339598,4.8695477 1.3770418,4.8692038 1.4180624,4.8589485 1.4822466,4.8429015 1.5369662,4.8062128 1.6057471,4.796387 1.7583982,4.77458 1.950229,4.7495314 2.1062397,4.7755325 c 0.081477,0.013578 0.1620911,0.031913 0.2502463,0.041708 0.054913,0.0061 0.1121196,-0.00782 0.1668309,0 0.1244203,0.017775 0.2266979,0.031954 0.3545155,0 0.093219,-0.023305 0.1487151,-0.080302 0.2293924,-0.1251233 0.032723,-0.01818 0.072525,-0.021868 0.1042694,-0.041708 0.054346,-0.033966 0.092653,-0.089574 0.145977,-0.1251233 0.059548,-0.039699 0.1304306,-0.061329 0.1876848,-0.1042691 0.031458,-0.023593 0.051958,-0.059822 0.083416,-0.083416 0.070931,-0.053199 0.1602226,-0.086689 0.2293924,-0.145977 0.029856,-0.02559 0.051417,-0.06056 0.083415,-0.083415 0.017889,-0.012777 0.045675,-0.00678 0.062562,-0.020855 0.026701,-0.022251 0.037985,-0.058839 0.062562,-0.083415 C 4.1928043,3.8776378 4.3485278,3.7860364 4.4835806,3.670277 4.5962056,3.573741 4.7067075,3.4721705 4.8380961,3.3991769 c 0.06646,-0.036922 0.08655,-0.012827 0.1668309,-0.020854 0.1809824,-0.018098 0.3078885,-0.019262 0.5004927,0 0.077332,0.00773 0.1519939,0.034671 0.2293924,0.041708 0.1603383,0.014576 0.3174953,0.020854 0.4796388,0.020854 0.061505,0 0.1711571,0.023294 0.2293924,0 0.026897,-0.010758 0.1320729,-0.096324 0.145977,-0.1042693 0.019087,-0.010906 0.043921,-0.0092 0.062562,-0.020854 0.2232692,-0.1395431 0.023593,-0.023593 0.145977,-0.145977 0.024577,-0.024577 0.060528,-0.036405 0.083416,-0.062562 C 7.292111,2.6382653 7.1945811,1.7879687 7.1945811,1.1886675" />
  </g>
</svg>
